# xmcd
#
# Track frame offsets: 
#        150
#        32035
#        51675
#        69287
#        98362
#        113882
#        138842
#        154837
#
# Disc length: 2580 seconds
#
# Revision: 1
# Processed by: cddbd v1.5.2PL0 Copyright (c) Steve Scherf et al.
# Submitted via: ExactAudioCopyFreeDBPlugin 1.0
#
DISCID=640a1208
DTITLE=Bobby Womack - Bobby Womack:  The Collection [BCM Records] [box
DTITLE=set]
DYEAR=1990
DGENRE=Soul
TTITLE0=Everything's Gonna Be Alright
TTITLE1=I Wish it Would Rain
TTITLE2=Trust in Me
TTITLE3=Where There's a Will, There's a Way
TTITLE4=Love Ain't Something You Can Get for Free
TTITLE5=Something You Got
TTITLE6=Daylight
TTITLE7=I Feel a Groove Comin' On
EXTD=
EXTT0=
EXTT1=
EXTT2=
EXTT3=
EXTT4=
EXTT5=
EXTT6=
EXTT7=
PLAYORDER=
